<mxfile host="app.diagrams.net" agent="Mozilla/5.0 (Windows NT 10.0; Win64; x64) AppleWebKit/537.36 (KHTML, like Gecko) Chrome/126.0.0.0 Safari/537.36" version="24.7.6">
  <diagram name="Page-1" id="SQ8MYEv4xP3c8ENyIp5a">
    <mxGraphModel dx="1730" dy="468" grid="1" gridSize="10" guides="1" tooltips="1" connect="1" arrows="1" fold="1" page="1" pageScale="1" pageWidth="850" pageHeight="1100" math="0" shadow="0">
      <root>
        <mxCell id="0" />
        <mxCell id="1" parent="0" />
        <mxCell id="ubY7LYZCqSwfbEKcv2Jp-1" value="&lt;font style=&quot;font-size: 8px;&quot;&gt;Shift QQ&lt;sub&gt;-1&lt;/sub&gt; and set MSB&lt;/font&gt;" style="rounded=0;whiteSpace=wrap;html=1;fontFamily=Times New Roman;" parent="1" vertex="1">
          <mxGeometry x="140" y="117" width="50" height="70" as="geometry" />
        </mxCell>
        <mxCell id="ubY7LYZCqSwfbEKcv2Jp-2" value="" style="endArrow=classic;html=1;rounded=0;entryX=-0.02;entryY=0.157;entryDx=0;entryDy=0;entryPerimeter=0;exitX=1;exitY=0.5;exitDx=0;exitDy=-5;exitPerimeter=0;fontFamily=Times New Roman;" parent="1" source="ubY7LYZCqSwfbEKcv2Jp-6" target="ubY7LYZCqSwfbEKcv2Jp-1" edge="1">
          <mxGeometry width="50" height="50" relative="1" as="geometry">
            <mxPoint x="90" y="128" as="sourcePoint" />
            <mxPoint x="450" y="297" as="targetPoint" />
          </mxGeometry>
        </mxCell>
        <mxCell id="ubY7LYZCqSwfbEKcv2Jp-3" value="" style="endArrow=none;html=1;rounded=0;fontFamily=Times New Roman;" parent="1" edge="1">
          <mxGeometry width="50" height="50" relative="1" as="geometry">
            <mxPoint x="115" y="132" as="sourcePoint" />
            <mxPoint x="105" y="122" as="targetPoint" />
          </mxGeometry>
        </mxCell>
        <mxCell id="ubY7LYZCqSwfbEKcv2Jp-4" value="" style="endArrow=classic;html=1;rounded=0;entryX=-0.02;entryY=0.157;entryDx=0;entryDy=0;entryPerimeter=0;fontFamily=Times New Roman;" parent="1" edge="1">
          <mxGeometry width="50" height="50" relative="1" as="geometry">
            <mxPoint x="191" y="128" as="sourcePoint" />
            <mxPoint x="240" y="127.99000000000001" as="targetPoint" />
          </mxGeometry>
        </mxCell>
        <mxCell id="ubY7LYZCqSwfbEKcv2Jp-5" value="" style="endArrow=none;html=1;rounded=0;fontFamily=Times New Roman;" parent="1" edge="1">
          <mxGeometry width="50" height="50" relative="1" as="geometry">
            <mxPoint x="220" y="133" as="sourcePoint" />
            <mxPoint x="210" y="123" as="targetPoint" />
          </mxGeometry>
        </mxCell>
        <mxCell id="ubY7LYZCqSwfbEKcv2Jp-6" value="" style="shadow=0;dashed=0;align=center;html=1;strokeWidth=1;shape=mxgraph.electrical.abstract.mux2;fontFamily=Times New Roman;" parent="1" vertex="1">
          <mxGeometry x="16" y="103" width="30" height="60" as="geometry" />
        </mxCell>
        <mxCell id="ubY7LYZCqSwfbEKcv2Jp-7" value="" style="endArrow=classic;html=1;rounded=0;entryX=0;entryY=0.18333333333333332;entryDx=0;entryDy=3;entryPerimeter=0;fontFamily=Times New Roman;" parent="1" target="ubY7LYZCqSwfbEKcv2Jp-6" edge="1">
          <mxGeometry width="50" height="50" relative="1" as="geometry">
            <mxPoint x="-24" y="117" as="sourcePoint" />
            <mxPoint x="-24" y="113" as="targetPoint" />
          </mxGeometry>
        </mxCell>
        <mxCell id="ubY7LYZCqSwfbEKcv2Jp-8" value="" style="endArrow=classic;html=1;rounded=0;entryX=0;entryY=0.18333333333333332;entryDx=0;entryDy=3;entryPerimeter=0;fontFamily=Times New Roman;" parent="1" edge="1">
          <mxGeometry width="50" height="50" relative="1" as="geometry">
            <mxPoint x="-25" y="139" as="sourcePoint" />
            <mxPoint x="15" y="139" as="targetPoint" />
          </mxGeometry>
        </mxCell>
        <mxCell id="ubY7LYZCqSwfbEKcv2Jp-9" value="q,1&#39;b0" style="text;html=1;strokeColor=none;fillColor=none;align=center;verticalAlign=middle;whiteSpace=wrap;rounded=0;fontFamily=Times New Roman;fontSize=10;" parent="1" vertex="1">
          <mxGeometry x="-74" y="123" width="60" height="30" as="geometry" />
        </mxCell>
        <mxCell id="ubY7LYZCqSwfbEKcv2Jp-10" value="q_sel" style="text;html=1;strokeColor=none;fillColor=none;align=center;verticalAlign=middle;whiteSpace=wrap;rounded=0;fontSize=10;fontFamily=Times New Roman;" parent="1" vertex="1">
          <mxGeometry x="2" y="158" width="60" height="30" as="geometry" />
        </mxCell>
        <mxCell id="ubY7LYZCqSwfbEKcv2Jp-11" value="" style="endArrow=none;html=1;rounded=0;entryX=0.02;entryY=0.886;entryDx=0;entryDy=0;entryPerimeter=0;fontFamily=Times New Roman;" parent="1" edge="1">
          <mxGeometry width="50" height="50" relative="1" as="geometry">
            <mxPoint x="119" y="180" as="sourcePoint" />
            <mxPoint x="140" y="180.01999999999998" as="targetPoint" />
          </mxGeometry>
        </mxCell>
        <mxCell id="ubY7LYZCqSwfbEKcv2Jp-12" value="en_q" style="text;html=1;strokeColor=none;fillColor=none;align=center;verticalAlign=middle;whiteSpace=wrap;rounded=0;fontSize=10;fontFamily=Times New Roman;" parent="1" vertex="1">
          <mxGeometry x="90" y="156" width="60" height="30" as="geometry" />
        </mxCell>
        <mxCell id="ubY7LYZCqSwfbEKcv2Jp-13" value="17" style="text;html=1;strokeColor=none;fillColor=none;align=center;verticalAlign=middle;whiteSpace=wrap;rounded=0;fontSize=10;fontFamily=Times New Roman;" parent="1" vertex="1">
          <mxGeometry x="77" y="101" width="60" height="30" as="geometry" />
        </mxCell>
        <mxCell id="ubY7LYZCqSwfbEKcv2Jp-14" value="17" style="text;html=1;strokeColor=none;fillColor=none;align=center;verticalAlign=middle;whiteSpace=wrap;rounded=0;fontSize=10;fontFamily=Times New Roman;" parent="1" vertex="1">
          <mxGeometry x="181" y="101" width="60" height="30" as="geometry" />
        </mxCell>
        <mxCell id="ubY7LYZCqSwfbEKcv2Jp-15" value="Shift A" style="rounded=0;whiteSpace=wrap;html=1;fontFamily=Times New Roman;" parent="1" vertex="1">
          <mxGeometry x="140" y="253" width="50" height="70" as="geometry" />
        </mxCell>
        <mxCell id="ubY7LYZCqSwfbEKcv2Jp-16" value="" style="endArrow=classic;html=1;rounded=0;entryX=-0.02;entryY=0.157;entryDx=0;entryDy=0;entryPerimeter=0;fontFamily=Times New Roman;" parent="1" target="ubY7LYZCqSwfbEKcv2Jp-15" edge="1">
          <mxGeometry width="50" height="50" relative="1" as="geometry">
            <mxPoint x="90" y="264" as="sourcePoint" />
            <mxPoint x="450" y="433" as="targetPoint" />
          </mxGeometry>
        </mxCell>
        <mxCell id="ubY7LYZCqSwfbEKcv2Jp-17" value="" style="endArrow=none;html=1;rounded=0;fontFamily=Times New Roman;" parent="1" edge="1">
          <mxGeometry width="50" height="50" relative="1" as="geometry">
            <mxPoint x="115" y="268" as="sourcePoint" />
            <mxPoint x="105" y="258" as="targetPoint" />
          </mxGeometry>
        </mxCell>
        <mxCell id="ubY7LYZCqSwfbEKcv2Jp-18" value="" style="endArrow=classic;html=1;rounded=0;entryX=-0.02;entryY=0.157;entryDx=0;entryDy=0;entryPerimeter=0;fontFamily=Times New Roman;" parent="1" edge="1">
          <mxGeometry width="50" height="50" relative="1" as="geometry">
            <mxPoint x="191" y="264" as="sourcePoint" />
            <mxPoint x="240" y="263.99" as="targetPoint" />
          </mxGeometry>
        </mxCell>
        <mxCell id="ubY7LYZCqSwfbEKcv2Jp-19" value="" style="endArrow=none;html=1;rounded=0;fontFamily=Times New Roman;" parent="1" edge="1">
          <mxGeometry width="50" height="50" relative="1" as="geometry">
            <mxPoint x="220" y="269" as="sourcePoint" />
            <mxPoint x="210" y="259" as="targetPoint" />
          </mxGeometry>
        </mxCell>
        <mxCell id="ubY7LYZCqSwfbEKcv2Jp-20" value="" style="shadow=0;dashed=0;align=center;html=1;strokeWidth=1;shape=mxgraph.electrical.abstract.mux2;fontFamily=Times New Roman;" parent="1" vertex="1">
          <mxGeometry x="60" y="239" width="30" height="60" as="geometry" />
        </mxCell>
        <mxCell id="ubY7LYZCqSwfbEKcv2Jp-21" value="" style="endArrow=classic;html=1;rounded=0;entryX=0;entryY=0.18333333333333332;entryDx=0;entryDy=3;entryPerimeter=0;fontFamily=Times New Roman;" parent="1" edge="1">
          <mxGeometry width="50" height="50" relative="1" as="geometry">
            <mxPoint x="19" y="275" as="sourcePoint" />
            <mxPoint x="59" y="275" as="targetPoint" />
          </mxGeometry>
        </mxCell>
        <mxCell id="ubY7LYZCqSwfbEKcv2Jp-22" value="&lt;font style=&quot;font-size: 9px;&quot;&gt;A_mux_out&lt;/font&gt;" style="text;html=1;strokeColor=none;fillColor=none;align=center;verticalAlign=middle;whiteSpace=wrap;rounded=0;fontSize=9;fontFamily=Times New Roman;" parent="1" vertex="1">
          <mxGeometry x="-30" y="228" width="60" height="30" as="geometry" />
        </mxCell>
        <mxCell id="ubY7LYZCqSwfbEKcv2Jp-23" value="A" style="text;html=1;strokeColor=none;fillColor=none;align=center;verticalAlign=middle;whiteSpace=wrap;rounded=0;fontFamily=Times New Roman;" parent="1" vertex="1">
          <mxGeometry x="-20" y="261" width="60" height="30" as="geometry" />
        </mxCell>
        <mxCell id="ubY7LYZCqSwfbEKcv2Jp-24" value="A_sel" style="text;html=1;strokeColor=none;fillColor=none;align=center;verticalAlign=middle;whiteSpace=wrap;rounded=0;fontSize=10;fontFamily=Times New Roman;" parent="1" vertex="1">
          <mxGeometry x="46" y="292" width="60" height="30" as="geometry" />
        </mxCell>
        <mxCell id="ubY7LYZCqSwfbEKcv2Jp-25" value="" style="endArrow=none;html=1;rounded=0;entryX=0.02;entryY=0.886;entryDx=0;entryDy=0;entryPerimeter=0;fontFamily=Times New Roman;" parent="1" edge="1">
          <mxGeometry width="50" height="50" relative="1" as="geometry">
            <mxPoint x="119" y="315" as="sourcePoint" />
            <mxPoint x="140" y="315.02" as="targetPoint" />
          </mxGeometry>
        </mxCell>
        <mxCell id="ubY7LYZCqSwfbEKcv2Jp-26" value="en_A" style="text;html=1;strokeColor=none;fillColor=none;align=center;verticalAlign=middle;whiteSpace=wrap;rounded=0;fontSize=10;fontFamily=Times New Roman;" parent="1" vertex="1">
          <mxGeometry x="90" y="291" width="60" height="30" as="geometry" />
        </mxCell>
        <mxCell id="ubY7LYZCqSwfbEKcv2Jp-27" value="16" style="text;html=1;strokeColor=none;fillColor=none;align=center;verticalAlign=middle;whiteSpace=wrap;rounded=0;fontSize=10;fontFamily=Times New Roman;" parent="1" vertex="1">
          <mxGeometry x="77" y="237" width="60" height="30" as="geometry" />
        </mxCell>
        <mxCell id="ubY7LYZCqSwfbEKcv2Jp-28" value="16" style="text;html=1;strokeColor=none;fillColor=none;align=center;verticalAlign=middle;whiteSpace=wrap;rounded=0;fontSize=10;fontFamily=Times New Roman;" parent="1" vertex="1">
          <mxGeometry x="181" y="237" width="60" height="30" as="geometry" />
        </mxCell>
        <mxCell id="ubY7LYZCqSwfbEKcv2Jp-29" value="M" style="rounded=0;whiteSpace=wrap;html=1;fontFamily=Times New Roman;" parent="1" vertex="1">
          <mxGeometry x="-117" y="386" width="50" height="70" as="geometry" />
        </mxCell>
        <mxCell id="ubY7LYZCqSwfbEKcv2Jp-30" value="" style="endArrow=classic;html=1;rounded=0;entryX=-0.02;entryY=0.157;entryDx=0;entryDy=0;entryPerimeter=0;fontFamily=Times New Roman;" parent="1" target="ubY7LYZCqSwfbEKcv2Jp-29" edge="1">
          <mxGeometry width="50" height="50" relative="1" as="geometry">
            <mxPoint x="-167" y="397" as="sourcePoint" />
            <mxPoint x="193" y="566" as="targetPoint" />
          </mxGeometry>
        </mxCell>
        <mxCell id="ubY7LYZCqSwfbEKcv2Jp-31" value="" style="endArrow=none;html=1;rounded=0;fontFamily=Times New Roman;" parent="1" edge="1">
          <mxGeometry width="50" height="50" relative="1" as="geometry">
            <mxPoint x="-142" y="401" as="sourcePoint" />
            <mxPoint x="-152" y="391" as="targetPoint" />
          </mxGeometry>
        </mxCell>
        <mxCell id="ubY7LYZCqSwfbEKcv2Jp-32" value="" style="endArrow=classic;html=1;rounded=0;entryX=-0.02;entryY=0.157;entryDx=0;entryDy=0;entryPerimeter=0;fontFamily=Times New Roman;" parent="1" edge="1">
          <mxGeometry width="50" height="50" relative="1" as="geometry">
            <mxPoint x="-66" y="397" as="sourcePoint" />
            <mxPoint x="-17" y="396.99" as="targetPoint" />
          </mxGeometry>
        </mxCell>
        <mxCell id="ubY7LYZCqSwfbEKcv2Jp-33" value="" style="endArrow=none;html=1;rounded=0;fontFamily=Times New Roman;" parent="1" edge="1">
          <mxGeometry width="50" height="50" relative="1" as="geometry">
            <mxPoint x="-37" y="402" as="sourcePoint" />
            <mxPoint x="-47" y="392" as="targetPoint" />
          </mxGeometry>
        </mxCell>
        <mxCell id="ubY7LYZCqSwfbEKcv2Jp-34" value="" style="endArrow=none;html=1;rounded=0;entryX=0.02;entryY=0.886;entryDx=0;entryDy=0;entryPerimeter=0;fontFamily=Times New Roman;" parent="1" edge="1">
          <mxGeometry width="50" height="50" relative="1" as="geometry">
            <mxPoint x="-138" y="448" as="sourcePoint" />
            <mxPoint x="-117" y="448.02" as="targetPoint" />
          </mxGeometry>
        </mxCell>
        <mxCell id="ubY7LYZCqSwfbEKcv2Jp-35" value="en_m" style="text;html=1;strokeColor=none;fillColor=none;align=center;verticalAlign=middle;whiteSpace=wrap;rounded=0;fontSize=10;fontFamily=Times New Roman;" parent="1" vertex="1">
          <mxGeometry x="-167" y="424" width="60" height="30" as="geometry" />
        </mxCell>
        <mxCell id="ubY7LYZCqSwfbEKcv2Jp-36" value="16" style="text;html=1;strokeColor=none;fillColor=none;align=center;verticalAlign=middle;whiteSpace=wrap;rounded=0;fontSize=10;fontFamily=Times New Roman;" parent="1" vertex="1">
          <mxGeometry x="-180" y="370" width="60" height="30" as="geometry" />
        </mxCell>
        <mxCell id="ubY7LYZCqSwfbEKcv2Jp-37" value="16" style="text;html=1;strokeColor=none;fillColor=none;align=center;verticalAlign=middle;whiteSpace=wrap;rounded=0;fontSize=10;fontFamily=Times New Roman;" parent="1" vertex="1">
          <mxGeometry x="-76" y="370" width="60" height="30" as="geometry" />
        </mxCell>
        <mxCell id="ubY7LYZCqSwfbEKcv2Jp-38" value="Counter" style="rounded=0;whiteSpace=wrap;html=1;fontFamily=Times New Roman;" parent="1" vertex="1">
          <mxGeometry x="50" y="386" width="50" height="70" as="geometry" />
        </mxCell>
        <mxCell id="ubY7LYZCqSwfbEKcv2Jp-39" value="" style="endArrow=classic;html=1;rounded=0;entryX=-0.02;entryY=0.157;entryDx=0;entryDy=0;entryPerimeter=0;fontFamily=Times New Roman;" parent="1" edge="1">
          <mxGeometry width="50" height="50" relative="1" as="geometry">
            <mxPoint x="101" y="397" as="sourcePoint" />
            <mxPoint x="150" y="396.99" as="targetPoint" />
          </mxGeometry>
        </mxCell>
        <mxCell id="ubY7LYZCqSwfbEKcv2Jp-40" value="" style="endArrow=none;html=1;rounded=0;fontFamily=Times New Roman;" parent="1" edge="1">
          <mxGeometry width="50" height="50" relative="1" as="geometry">
            <mxPoint x="130" y="402" as="sourcePoint" />
            <mxPoint x="120" y="392" as="targetPoint" />
          </mxGeometry>
        </mxCell>
        <mxCell id="ubY7LYZCqSwfbEKcv2Jp-41" value="5" style="text;html=1;strokeColor=none;fillColor=none;align=center;verticalAlign=middle;whiteSpace=wrap;rounded=0;fontSize=10;fontFamily=Times New Roman;" parent="1" vertex="1">
          <mxGeometry x="91" y="370" width="60" height="30" as="geometry" />
        </mxCell>
        <mxCell id="ubY7LYZCqSwfbEKcv2Jp-42" value="=" style="ellipse;whiteSpace=wrap;html=1;fontSize=10;fontFamily=Times New Roman;" parent="1" vertex="1">
          <mxGeometry x="151" y="386" width="20" height="24" as="geometry" />
        </mxCell>
        <mxCell id="ubY7LYZCqSwfbEKcv2Jp-43" value="" style="endArrow=classic;html=1;rounded=0;fontSize=10;entryX=0.5;entryY=1;entryDx=0;entryDy=0;fontFamily=Times New Roman;" parent="1" edge="1">
          <mxGeometry width="50" height="50" relative="1" as="geometry">
            <mxPoint x="161" y="438" as="sourcePoint" />
            <mxPoint x="161" y="410" as="targetPoint" />
          </mxGeometry>
        </mxCell>
        <mxCell id="ubY7LYZCqSwfbEKcv2Jp-44" value="17" style="text;html=1;strokeColor=none;fillColor=none;align=center;verticalAlign=middle;whiteSpace=wrap;rounded=0;fontSize=10;fontFamily=Times New Roman;" parent="1" vertex="1">
          <mxGeometry x="131" y="429" width="60" height="30" as="geometry" />
        </mxCell>
        <mxCell id="ubY7LYZCqSwfbEKcv2Jp-45" value="" style="endArrow=classic;html=1;rounded=0;fontSize=10;exitX=1;exitY=0.5;exitDx=0;exitDy=0;fontFamily=Times New Roman;" parent="1" source="ubY7LYZCqSwfbEKcv2Jp-42" edge="1">
          <mxGeometry width="50" height="50" relative="1" as="geometry">
            <mxPoint x="170" y="358" as="sourcePoint" />
            <mxPoint x="189" y="398" as="targetPoint" />
          </mxGeometry>
        </mxCell>
        <mxCell id="ubY7LYZCqSwfbEKcv2Jp-46" value="clear" style="text;html=1;strokeColor=none;fillColor=none;align=center;verticalAlign=middle;whiteSpace=wrap;rounded=0;fontSize=10;fontFamily=Times New Roman;" parent="1" vertex="1">
          <mxGeometry x="172" y="382" width="60" height="30" as="geometry" />
        </mxCell>
        <mxCell id="ubY7LYZCqSwfbEKcv2Jp-47" value="q_shift_out" style="text;html=1;strokeColor=none;fillColor=none;align=center;verticalAlign=middle;whiteSpace=wrap;rounded=0;fontSize=10;fontFamily=Times New Roman;" parent="1" vertex="1">
          <mxGeometry x="241" y="114" width="60" height="30" as="geometry" />
        </mxCell>
        <mxCell id="ubY7LYZCqSwfbEKcv2Jp-48" value="A_shift_out" style="text;html=1;strokeColor=none;fillColor=none;align=center;verticalAlign=middle;whiteSpace=wrap;rounded=0;fontSize=10;fontFamily=Times New Roman;" parent="1" vertex="1">
          <mxGeometry x="237" y="247" width="60" height="30" as="geometry" />
        </mxCell>
        <mxCell id="ubY7LYZCqSwfbEKcv2Jp-49" value="m_out" style="text;html=1;strokeColor=none;fillColor=none;align=center;verticalAlign=middle;whiteSpace=wrap;rounded=0;fontSize=10;fontFamily=Times New Roman;" parent="1" vertex="1">
          <mxGeometry x="-30" y="381" width="60" height="30" as="geometry" />
        </mxCell>
        <mxCell id="ubY7LYZCqSwfbEKcv2Jp-50" value="" style="endArrow=classic;html=1;rounded=0;fontSize=10;entryX=0.5;entryY=0;entryDx=0;entryDy=0;fontFamily=Times New Roman;" parent="1" target="ubY7LYZCqSwfbEKcv2Jp-1" edge="1">
          <mxGeometry width="50" height="50" relative="1" as="geometry">
            <mxPoint x="165" y="87" as="sourcePoint" />
            <mxPoint x="320" y="317" as="targetPoint" />
          </mxGeometry>
        </mxCell>
        <mxCell id="ubY7LYZCqSwfbEKcv2Jp-51" value="A&lt;sub&gt;in&lt;/sub&gt;" style="text;html=1;strokeColor=none;fillColor=none;align=center;verticalAlign=middle;whiteSpace=wrap;rounded=0;fontSize=10;fontFamily=Times New Roman;" parent="1" vertex="1">
          <mxGeometry x="136" y="64" width="60" height="30" as="geometry" />
        </mxCell>
        <mxCell id="ubY7LYZCqSwfbEKcv2Jp-52" value="A&lt;sub&gt;in&lt;/sub&gt;" style="text;html=1;strokeColor=none;fillColor=none;align=center;verticalAlign=middle;whiteSpace=wrap;rounded=0;fontSize=10;fontFamily=Times New Roman;" parent="1" vertex="1">
          <mxGeometry x="121" y="250" width="60" height="30" as="geometry" />
        </mxCell>
        <mxCell id="ubY7LYZCqSwfbEKcv2Jp-53" value="&lt;sub&gt;&lt;span style=&quot;font-size: 10px;&quot;&gt;q&lt;/span&gt;in&lt;/sub&gt;" style="text;html=1;strokeColor=none;fillColor=none;align=center;verticalAlign=middle;whiteSpace=wrap;rounded=0;fontSize=10;fontFamily=Times New Roman;" parent="1" vertex="1">
          <mxGeometry x="120" y="114" width="60" height="30" as="geometry" />
        </mxCell>
        <mxCell id="ubY7LYZCqSwfbEKcv2Jp-54" value="" style="shadow=0;dashed=0;align=center;html=1;strokeWidth=1;shape=mxgraph.electrical.abstract.mux2;fontSize=9;fontFamily=Times New Roman;" parent="1" vertex="1">
          <mxGeometry x="-129" y="217.5" width="30" height="59" as="geometry" />
        </mxCell>
        <mxCell id="ubY7LYZCqSwfbEKcv2Jp-55" value="+" style="ellipse;whiteSpace=wrap;html=1;fontSize=9;fontFamily=Times New Roman;" parent="1" vertex="1">
          <mxGeometry x="-99" y="231" width="20" height="20" as="geometry" />
        </mxCell>
        <mxCell id="ubY7LYZCqSwfbEKcv2Jp-56" value="" style="endArrow=classic;html=1;rounded=0;fontSize=9;entryX=0.5;entryY=0;entryDx=0;entryDy=0;fontFamily=Times New Roman;" parent="1" edge="1">
          <mxGeometry width="50" height="50" relative="1" as="geometry">
            <mxPoint x="-89" y="202" as="sourcePoint" />
            <mxPoint x="-89" y="230" as="targetPoint" />
          </mxGeometry>
        </mxCell>
        <mxCell id="ubY7LYZCqSwfbEKcv2Jp-57" value="" style="shadow=0;dashed=0;align=center;html=1;strokeWidth=1;shape=mxgraph.electrical.abstract.mux2;fontSize=9;fontFamily=Times New Roman;" parent="1" vertex="1">
          <mxGeometry x="-60" y="228" width="30" height="61" as="geometry" />
        </mxCell>
        <mxCell id="ubY7LYZCqSwfbEKcv2Jp-58" value="" style="endArrow=classic;html=1;rounded=0;fontSize=9;exitX=1;exitY=0.5;exitDx=0;exitDy=0;entryX=0;entryY=0.15;entryDx=0;entryDy=3;entryPerimeter=0;fontFamily=Times New Roman;" parent="1" source="ubY7LYZCqSwfbEKcv2Jp-55" target="ubY7LYZCqSwfbEKcv2Jp-57" edge="1">
          <mxGeometry width="50" height="50" relative="1" as="geometry">
            <mxPoint x="51" y="393" as="sourcePoint" />
            <mxPoint x="101" y="343" as="targetPoint" />
          </mxGeometry>
        </mxCell>
        <mxCell id="ubY7LYZCqSwfbEKcv2Jp-59" value="" style="endArrow=classic;html=1;rounded=0;fontSize=9;exitX=1;exitY=0.5;exitDx=0;exitDy=-5;exitPerimeter=0;entryX=0;entryY=0.18333333333333332;entryDx=0;entryDy=3;entryPerimeter=0;fontFamily=Times New Roman;" parent="1" target="ubY7LYZCqSwfbEKcv2Jp-20" edge="1">
          <mxGeometry width="50" height="50" relative="1" as="geometry">
            <mxPoint x="-30" y="253.5" as="sourcePoint" />
            <mxPoint x="21" y="253" as="targetPoint" />
          </mxGeometry>
        </mxCell>
        <mxCell id="ubY7LYZCqSwfbEKcv2Jp-60" value="m_mux_sel" style="text;html=1;strokeColor=none;fillColor=none;align=center;verticalAlign=middle;whiteSpace=wrap;rounded=0;fontSize=9;fontFamily=Times New Roman;" parent="1" vertex="1">
          <mxGeometry x="-148" y="270" width="60" height="30" as="geometry" />
        </mxCell>
        <mxCell id="ubY7LYZCqSwfbEKcv2Jp-61" value="A_mux_sel" style="text;html=1;strokeColor=none;fillColor=none;align=center;verticalAlign=middle;whiteSpace=wrap;rounded=0;fontSize=9;fontFamily=Times New Roman;" parent="1" vertex="1">
          <mxGeometry x="-75" y="279" width="60" height="30" as="geometry" />
        </mxCell>
        <mxCell id="ubY7LYZCqSwfbEKcv2Jp-62" value="" style="shadow=0;dashed=0;align=center;html=1;strokeWidth=1;shape=mxgraph.electrical.abstract.mux2;fontFamily=Times New Roman;" parent="1" vertex="1">
          <mxGeometry x="-197" y="372" width="30" height="60" as="geometry" />
        </mxCell>
        <mxCell id="ubY7LYZCqSwfbEKcv2Jp-63" value="" style="endArrow=classic;html=1;rounded=0;entryX=0;entryY=0.18333333333333332;entryDx=0;entryDy=3;entryPerimeter=0;fontFamily=Times New Roman;" parent="1" target="ubY7LYZCqSwfbEKcv2Jp-62" edge="1">
          <mxGeometry width="50" height="50" relative="1" as="geometry">
            <mxPoint x="-237" y="386" as="sourcePoint" />
            <mxPoint x="-237" y="382" as="targetPoint" />
          </mxGeometry>
        </mxCell>
        <mxCell id="ubY7LYZCqSwfbEKcv2Jp-64" value="" style="endArrow=classic;html=1;rounded=0;entryX=0;entryY=0.18333333333333332;entryDx=0;entryDy=3;entryPerimeter=0;fontFamily=Times New Roman;" parent="1" edge="1">
          <mxGeometry width="50" height="50" relative="1" as="geometry">
            <mxPoint x="-238" y="408" as="sourcePoint" />
            <mxPoint x="-198" y="408" as="targetPoint" />
          </mxGeometry>
        </mxCell>
        <mxCell id="ubY7LYZCqSwfbEKcv2Jp-65" value="m" style="text;html=1;strokeColor=none;fillColor=none;align=center;verticalAlign=middle;whiteSpace=wrap;rounded=0;fontFamily=Times New Roman;fontSize=10;" parent="1" vertex="1">
          <mxGeometry x="-276" y="390" width="60" height="30" as="geometry" />
        </mxCell>
        <mxCell id="ubY7LYZCqSwfbEKcv2Jp-66" value="m_sel" style="text;html=1;strokeColor=none;fillColor=none;align=center;verticalAlign=middle;whiteSpace=wrap;rounded=0;fontSize=10;fontFamily=Times New Roman;" parent="1" vertex="1">
          <mxGeometry x="-211" y="423" width="60" height="30" as="geometry" />
        </mxCell>
        <mxCell id="ubY7LYZCqSwfbEKcv2Jp-67" value="" style="endArrow=none;html=1;rounded=0;fontFamily=Times New Roman;" parent="1" edge="1">
          <mxGeometry width="50" height="50" relative="1" as="geometry">
            <mxPoint x="-3" y="122" as="sourcePoint" />
            <mxPoint x="-13" y="112" as="targetPoint" />
          </mxGeometry>
        </mxCell>
        <mxCell id="ubY7LYZCqSwfbEKcv2Jp-68" value="" style="endArrow=none;html=1;rounded=0;fontFamily=Times New Roman;" parent="1" edge="1">
          <mxGeometry width="50" height="50" relative="1" as="geometry">
            <mxPoint x="-1" y="143" as="sourcePoint" />
            <mxPoint x="-11" y="133" as="targetPoint" />
          </mxGeometry>
        </mxCell>
        <mxCell id="ubY7LYZCqSwfbEKcv2Jp-69" value="17" style="text;html=1;strokeColor=none;fillColor=none;align=center;verticalAlign=middle;whiteSpace=wrap;rounded=0;fontSize=10;fontFamily=Times New Roman;" parent="1" vertex="1">
          <mxGeometry x="-38" y="90" width="60" height="30" as="geometry" />
        </mxCell>
        <mxCell id="ubY7LYZCqSwfbEKcv2Jp-70" value="17" style="text;html=1;strokeColor=none;fillColor=none;align=center;verticalAlign=middle;whiteSpace=wrap;rounded=0;fontSize=10;fontFamily=Times New Roman;" parent="1" vertex="1">
          <mxGeometry x="-34" y="140" width="63" height="27" as="geometry" />
        </mxCell>
        <mxCell id="ubY7LYZCqSwfbEKcv2Jp-71" value="" style="endArrow=classic;html=1;rounded=0;fontFamily=Times New Roman;fontSize=10;entryX=0.75;entryY=0;entryDx=0;entryDy=0;" parent="1" edge="1">
          <mxGeometry width="50" height="50" relative="1" as="geometry">
            <mxPoint x="100" y="155" as="sourcePoint" />
            <mxPoint x="140" y="155" as="targetPoint" />
          </mxGeometry>
        </mxCell>
        <mxCell id="ubY7LYZCqSwfbEKcv2Jp-72" value="" style="endArrow=none;html=1;rounded=0;fontFamily=Times New Roman;" parent="1" edge="1">
          <mxGeometry width="50" height="50" relative="1" as="geometry">
            <mxPoint x="122" y="160" as="sourcePoint" />
            <mxPoint x="112" y="150" as="targetPoint" />
          </mxGeometry>
        </mxCell>
        <mxCell id="ubY7LYZCqSwfbEKcv2Jp-73" value="" style="endArrow=none;html=1;rounded=0;fontFamily=Times New Roman;fontSize=10;exitX=0.25;exitY=0;exitDx=0;exitDy=0;entryX=1;entryY=0.5;entryDx=0;entryDy=-5;entryPerimeter=0;" parent="1" target="ubY7LYZCqSwfbEKcv2Jp-20" edge="1">
          <mxGeometry width="50" height="50" relative="1" as="geometry">
            <mxPoint x="105" y="155" as="sourcePoint" />
            <mxPoint x="90" y="260" as="targetPoint" />
            <Array as="points">
              <mxPoint x="90" y="155" />
            </Array>
          </mxGeometry>
        </mxCell>
        <mxCell id="ubY7LYZCqSwfbEKcv2Jp-74" value="16" style="text;html=1;strokeColor=none;fillColor=none;align=center;verticalAlign=middle;whiteSpace=wrap;rounded=0;fontSize=10;fontFamily=Times New Roman;" parent="1" vertex="1">
          <mxGeometry x="83" y="128" width="60" height="30" as="geometry" />
        </mxCell>
        <mxCell id="ubY7LYZCqSwfbEKcv2Jp-75" value="" style="endArrow=none;html=1;rounded=0;fontFamily=Times New Roman;" parent="1" edge="1">
          <mxGeometry width="50" height="50" relative="1" as="geometry">
            <mxPoint x="224" y="130" as="sourcePoint" />
            <mxPoint x="-24" y="116" as="targetPoint" />
            <Array as="points">
              <mxPoint x="224" y="70" />
              <mxPoint x="-24" y="70" />
            </Array>
          </mxGeometry>
        </mxCell>
        <mxCell id="ubY7LYZCqSwfbEKcv2Jp-76" value="&lt;font style=&quot;font-size: 7px;&quot;&gt;comp&lt;/font&gt;" style="ellipse;whiteSpace=wrap;html=1;aspect=fixed;fontSize=7;fontFamily=Times New Roman;" parent="1" vertex="1">
          <mxGeometry x="-167.5" y="242.5" width="21" height="21" as="geometry" />
        </mxCell>
        <mxCell id="ubY7LYZCqSwfbEKcv2Jp-77" value="" style="endArrow=classic;html=1;rounded=0;fontFamily=Times New Roman;fontSize=7;exitX=1;exitY=0.5;exitDx=0;exitDy=0;entryX=0;entryY=0.5466101694915254;entryDx=0;entryDy=3;entryPerimeter=0;" parent="1" source="ubY7LYZCqSwfbEKcv2Jp-76" target="ubY7LYZCqSwfbEKcv2Jp-54" edge="1">
          <mxGeometry width="50" height="50" relative="1" as="geometry">
            <mxPoint x="60" y="290" as="sourcePoint" />
            <mxPoint x="110" y="240" as="targetPoint" />
          </mxGeometry>
        </mxCell>
        <mxCell id="ubY7LYZCqSwfbEKcv2Jp-78" value="" style="endArrow=classic;html=1;rounded=0;fontFamily=Times New Roman;fontSize=7;exitX=0.933;exitY=0;exitDx=0;exitDy=0;exitPerimeter=0;entryX=0;entryY=0.18220338983050846;entryDx=0;entryDy=3;entryPerimeter=0;" parent="1" target="ubY7LYZCqSwfbEKcv2Jp-54" edge="1">
          <mxGeometry width="50" height="50" relative="1" as="geometry">
            <mxPoint x="-220.01999999999998" y="386" as="sourcePoint" />
            <mxPoint x="-220" y="216" as="targetPoint" />
            <Array as="points">
              <mxPoint x="-220" y="230" />
            </Array>
          </mxGeometry>
        </mxCell>
        <mxCell id="ubY7LYZCqSwfbEKcv2Jp-79" value="" style="endArrow=classic;html=1;rounded=0;fontFamily=Times New Roman;fontSize=7;" parent="1" edge="1">
          <mxGeometry width="50" height="50" relative="1" as="geometry">
            <mxPoint x="-219" y="253" as="sourcePoint" />
            <mxPoint x="-169" y="253" as="targetPoint" />
          </mxGeometry>
        </mxCell>
        <mxCell id="ubY7LYZCqSwfbEKcv2Jp-80" value="" style="endArrow=none;html=1;rounded=0;fontFamily=Times New Roman;" parent="1" edge="1">
          <mxGeometry width="50" height="50" relative="1" as="geometry">
            <mxPoint x="-223" y="391" as="sourcePoint" />
            <mxPoint x="-233" y="381" as="targetPoint" />
          </mxGeometry>
        </mxCell>
        <mxCell id="ubY7LYZCqSwfbEKcv2Jp-81" value="" style="endArrow=none;html=1;rounded=0;fontFamily=Times New Roman;" parent="1" edge="1">
          <mxGeometry width="50" height="50" relative="1" as="geometry">
            <mxPoint x="-218" y="413" as="sourcePoint" />
            <mxPoint x="-228" y="403" as="targetPoint" />
          </mxGeometry>
        </mxCell>
        <mxCell id="ubY7LYZCqSwfbEKcv2Jp-82" value="&lt;font style=&quot;font-size: 9px;&quot;&gt;16&lt;/font&gt;" style="text;html=1;strokeColor=none;fillColor=none;align=center;verticalAlign=middle;whiteSpace=wrap;rounded=0;fontSize=7;fontFamily=Times New Roman;" parent="1" vertex="1">
          <mxGeometry x="-262" y="360" width="60" height="30" as="geometry" />
        </mxCell>
        <mxCell id="ubY7LYZCqSwfbEKcv2Jp-83" value="&lt;font style=&quot;font-size: 9px;&quot;&gt;16&lt;/font&gt;" style="text;html=1;strokeColor=none;fillColor=none;align=center;verticalAlign=middle;whiteSpace=wrap;rounded=0;fontSize=7;fontFamily=Times New Roman;" parent="1" vertex="1">
          <mxGeometry x="-251" y="407" width="60" height="30" as="geometry" />
        </mxCell>
        <mxCell id="ubY7LYZCqSwfbEKcv2Jp-84" value="" style="endArrow=classic;html=1;rounded=0;fontFamily=Times New Roman;fontSize=9;exitX=0.75;exitY=1;exitDx=0;exitDy=0;" parent="1" edge="1">
          <mxGeometry width="50" height="50" relative="1" as="geometry">
            <mxPoint x="224" y="131" as="sourcePoint" />
            <mxPoint x="-60" y="265" as="targetPoint" />
            <Array as="points">
              <mxPoint x="224" y="170" />
              <mxPoint x="300" y="170" />
              <mxPoint x="300" y="340" />
              <mxPoint x="148" y="340" />
              <mxPoint x="-82" y="340" />
              <mxPoint x="-82" y="265" />
            </Array>
          </mxGeometry>
        </mxCell>
        <mxCell id="ubY7LYZCqSwfbEKcv2Jp-85" value="" style="endArrow=none;html=1;rounded=0;fontFamily=Times New Roman;fontSize=9;" parent="1" edge="1">
          <mxGeometry width="50" height="50" relative="1" as="geometry">
            <mxPoint x="-220" y="357" as="sourcePoint" />
            <mxPoint x="-60" y="397" as="targetPoint" />
            <Array as="points">
              <mxPoint x="-60" y="357" />
            </Array>
          </mxGeometry>
        </mxCell>
        <mxCell id="ubY7LYZCqSwfbEKcv2Jp-86" value="" style="endArrow=classic;html=1;rounded=0;entryX=0;entryY=0.75;entryDx=0;entryDy=0;fontFamily=Times New Roman;" parent="1" target="ubY7LYZCqSwfbEKcv2Jp-38" edge="1">
          <mxGeometry width="50" height="50" relative="1" as="geometry">
            <mxPoint x="20" y="439" as="sourcePoint" />
            <mxPoint x="190" y="320" as="targetPoint" />
          </mxGeometry>
        </mxCell>
        <mxCell id="ubY7LYZCqSwfbEKcv2Jp-87" value="en_ct" style="text;html=1;strokeColor=none;fillColor=none;align=center;verticalAlign=middle;whiteSpace=wrap;rounded=0;fontFamily=Times New Roman;fontSize=9;" parent="1" vertex="1">
          <mxGeometry x="2" y="434" width="60" height="30" as="geometry" />
        </mxCell>
        <mxCell id="ubY7LYZCqSwfbEKcv2Jp-88" value="" style="endArrow=classic;html=1;rounded=0;fontFamily=Times New Roman;fontSize=9;entryX=0.5;entryY=1;entryDx=0;entryDy=0;" parent="1" target="ubY7LYZCqSwfbEKcv2Jp-1" edge="1">
          <mxGeometry width="50" height="50" relative="1" as="geometry">
            <mxPoint x="165" y="210" as="sourcePoint" />
            <mxPoint x="190" y="310" as="targetPoint" />
          </mxGeometry>
        </mxCell>
        <mxCell id="ubY7LYZCqSwfbEKcv2Jp-89" value="en_shift_q" style="text;html=1;strokeColor=none;fillColor=none;align=center;verticalAlign=middle;whiteSpace=wrap;rounded=0;fontSize=9;fontFamily=Times New Roman;" parent="1" vertex="1">
          <mxGeometry x="136" y="201" width="60" height="30" as="geometry" />
        </mxCell>
        <mxCell id="ubY7LYZCqSwfbEKcv2Jp-90" value="" style="endArrow=classic;html=1;rounded=0;fontFamily=Times New Roman;fontSize=9;entryX=0.5;entryY=1;entryDx=0;entryDy=0;" parent="1" edge="1">
          <mxGeometry width="50" height="50" relative="1" as="geometry">
            <mxPoint x="165" y="346" as="sourcePoint" />
            <mxPoint x="165" y="323" as="targetPoint" />
          </mxGeometry>
        </mxCell>
        <mxCell id="ubY7LYZCqSwfbEKcv2Jp-91" value="en_shift_A" style="text;html=1;strokeColor=none;fillColor=none;align=center;verticalAlign=middle;whiteSpace=wrap;rounded=0;fontSize=9;fontFamily=Times New Roman;" parent="1" vertex="1">
          <mxGeometry x="136" y="337" width="60" height="30" as="geometry" />
        </mxCell>
        <mxCell id="ubY7LYZCqSwfbEKcv2Jp-92" value="" style="endArrow=none;html=1;rounded=0;fontFamily=Times New Roman;fontSize=9;" parent="1" edge="1">
          <mxGeometry width="50" height="50" relative="1" as="geometry">
            <mxPoint x="-154" y="521" as="sourcePoint" />
            <mxPoint x="360" y="521" as="targetPoint" />
          </mxGeometry>
        </mxCell>
        <mxCell id="ubY7LYZCqSwfbEKcv2Jp-93" value="" style="endArrow=none;html=1;rounded=0;fontFamily=Times New Roman;fontSize=9;" parent="1" edge="1">
          <mxGeometry width="50" height="50" relative="1" as="geometry">
            <mxPoint x="-154" y="631" as="sourcePoint" />
            <mxPoint x="-154" y="521" as="targetPoint" />
          </mxGeometry>
        </mxCell>
        <mxCell id="ubY7LYZCqSwfbEKcv2Jp-94" value="" style="endArrow=classic;html=1;rounded=0;fontFamily=Times New Roman;fontSize=9;" parent="1" edge="1">
          <mxGeometry width="50" height="50" relative="1" as="geometry">
            <mxPoint x="-184" y="531" as="sourcePoint" />
            <mxPoint x="-154" y="531" as="targetPoint" />
          </mxGeometry>
        </mxCell>
        <mxCell id="ubY7LYZCqSwfbEKcv2Jp-95" value="" style="endArrow=classic;html=1;rounded=0;fontFamily=Times New Roman;fontSize=9;" parent="1" edge="1">
          <mxGeometry width="50" height="50" relative="1" as="geometry">
            <mxPoint x="-185" y="548" as="sourcePoint" />
            <mxPoint x="-155" y="548" as="targetPoint" />
          </mxGeometry>
        </mxCell>
        <mxCell id="ubY7LYZCqSwfbEKcv2Jp-96" value="Start" style="text;html=1;strokeColor=none;fillColor=none;align=center;verticalAlign=middle;whiteSpace=wrap;rounded=0;fontSize=9;fontFamily=Times New Roman;" parent="1" vertex="1">
          <mxGeometry x="-227" y="516" width="60" height="30" as="geometry" />
        </mxCell>
        <mxCell id="ubY7LYZCqSwfbEKcv2Jp-97" value="q_shift_out[1:0]" style="text;html=1;strokeColor=none;fillColor=none;align=center;verticalAlign=middle;whiteSpace=wrap;rounded=0;fontSize=9;fontFamily=Times New Roman;" parent="1" vertex="1">
          <mxGeometry x="-247" y="533" width="60" height="30" as="geometry" />
        </mxCell>
        <mxCell id="ubY7LYZCqSwfbEKcv2Jp-98" value="" style="endArrow=classic;html=1;rounded=0;fontFamily=Times New Roman;fontSize=9;" parent="1" edge="1">
          <mxGeometry width="50" height="50" relative="1" as="geometry">
            <mxPoint x="-57" y="521" as="sourcePoint" />
            <mxPoint x="-57" y="491" as="targetPoint" />
          </mxGeometry>
        </mxCell>
        <mxCell id="ubY7LYZCqSwfbEKcv2Jp-99" value="m_sel" style="text;html=1;strokeColor=none;fillColor=none;align=center;verticalAlign=middle;whiteSpace=wrap;rounded=0;fontSize=9;fontFamily=Times New Roman;" parent="1" vertex="1">
          <mxGeometry x="-82" y="464" width="60" height="30" as="geometry" />
        </mxCell>
        <mxCell id="ubY7LYZCqSwfbEKcv2Jp-100" value="" style="endArrow=classic;html=1;rounded=0;fontFamily=Times New Roman;fontSize=9;" parent="1" edge="1">
          <mxGeometry width="50" height="50" relative="1" as="geometry">
            <mxPoint x="-16" y="521" as="sourcePoint" />
            <mxPoint x="-16" y="491" as="targetPoint" />
          </mxGeometry>
        </mxCell>
        <mxCell id="ubY7LYZCqSwfbEKcv2Jp-101" value="A_sel" style="text;html=1;strokeColor=none;fillColor=none;align=center;verticalAlign=middle;whiteSpace=wrap;rounded=0;fontSize=9;fontFamily=Times New Roman;" parent="1" vertex="1">
          <mxGeometry x="-41" y="464" width="60" height="30" as="geometry" />
        </mxCell>
        <mxCell id="ubY7LYZCqSwfbEKcv2Jp-102" value="" style="endArrow=classic;html=1;rounded=0;fontFamily=Times New Roman;fontSize=9;" parent="1" edge="1">
          <mxGeometry width="50" height="50" relative="1" as="geometry">
            <mxPoint x="22" y="521" as="sourcePoint" />
            <mxPoint x="22" y="491" as="targetPoint" />
          </mxGeometry>
        </mxCell>
        <mxCell id="ubY7LYZCqSwfbEKcv2Jp-103" value="en_A" style="text;html=1;strokeColor=none;fillColor=none;align=center;verticalAlign=middle;whiteSpace=wrap;rounded=0;fontSize=9;fontFamily=Times New Roman;" parent="1" vertex="1">
          <mxGeometry x="-3" y="464" width="60" height="30" as="geometry" />
        </mxCell>
        <mxCell id="ubY7LYZCqSwfbEKcv2Jp-104" value="" style="endArrow=classic;html=1;rounded=0;fontFamily=Times New Roman;fontSize=9;" parent="1" edge="1">
          <mxGeometry width="50" height="50" relative="1" as="geometry">
            <mxPoint x="55" y="521" as="sourcePoint" />
            <mxPoint x="55" y="491" as="targetPoint" />
          </mxGeometry>
        </mxCell>
        <mxCell id="ubY7LYZCqSwfbEKcv2Jp-105" value="en_q" style="text;html=1;strokeColor=none;fillColor=none;align=center;verticalAlign=middle;whiteSpace=wrap;rounded=0;fontSize=9;fontFamily=Times New Roman;" parent="1" vertex="1">
          <mxGeometry x="29" y="464" width="60" height="30" as="geometry" />
        </mxCell>
        <mxCell id="ubY7LYZCqSwfbEKcv2Jp-110" value="" style="endArrow=classic;html=1;rounded=0;fontFamily=Times New Roman;fontSize=9;" parent="1" edge="1">
          <mxGeometry width="50" height="50" relative="1" as="geometry">
            <mxPoint x="-184" y="567" as="sourcePoint" />
            <mxPoint x="-154" y="567" as="targetPoint" />
          </mxGeometry>
        </mxCell>
        <mxCell id="ubY7LYZCqSwfbEKcv2Jp-111" value="clear" style="text;html=1;strokeColor=none;fillColor=none;align=center;verticalAlign=middle;whiteSpace=wrap;rounded=0;fontSize=9;fontFamily=Times New Roman;" parent="1" vertex="1">
          <mxGeometry x="-227" y="551" width="60" height="30" as="geometry" />
        </mxCell>
        <mxCell id="ubY7LYZCqSwfbEKcv2Jp-112" value="Controller" style="text;html=1;strokeColor=none;fillColor=none;align=center;verticalAlign=middle;whiteSpace=wrap;rounded=0;fontSize=19;fontFamily=Times New Roman;" parent="1" vertex="1">
          <mxGeometry x="47" y="541" width="60" height="30" as="geometry" />
        </mxCell>
        <mxCell id="ubY7LYZCqSwfbEKcv2Jp-113" value="" style="endArrow=classic;html=1;rounded=0;fontFamily=Times New Roman;fontSize=9;" parent="1" edge="1">
          <mxGeometry width="50" height="50" relative="1" as="geometry">
            <mxPoint x="87" y="521" as="sourcePoint" />
            <mxPoint x="87" y="491" as="targetPoint" />
          </mxGeometry>
        </mxCell>
        <mxCell id="ubY7LYZCqSwfbEKcv2Jp-114" value="en_m" style="text;html=1;strokeColor=none;fillColor=none;align=center;verticalAlign=middle;whiteSpace=wrap;rounded=0;fontSize=9;fontFamily=Times New Roman;" parent="1" vertex="1">
          <mxGeometry x="62" y="464" width="60" height="30" as="geometry" />
        </mxCell>
        <mxCell id="ubY7LYZCqSwfbEKcv2Jp-115" value="" style="endArrow=classic;html=1;rounded=0;fontFamily=Times New Roman;fontSize=9;" parent="1" edge="1">
          <mxGeometry width="50" height="50" relative="1" as="geometry">
            <mxPoint x="130" y="521" as="sourcePoint" />
            <mxPoint x="130" y="491" as="targetPoint" />
          </mxGeometry>
        </mxCell>
        <mxCell id="ubY7LYZCqSwfbEKcv2Jp-116" value="en_shift_q" style="text;html=1;strokeColor=none;fillColor=none;align=center;verticalAlign=middle;whiteSpace=wrap;rounded=0;fontSize=9;fontFamily=Times New Roman;" parent="1" vertex="1">
          <mxGeometry x="104" y="464" width="60" height="30" as="geometry" />
        </mxCell>
        <mxCell id="ubY7LYZCqSwfbEKcv2Jp-117" value="" style="endArrow=classic;html=1;rounded=0;fontFamily=Times New Roman;fontSize=9;" parent="1" edge="1">
          <mxGeometry width="50" height="50" relative="1" as="geometry">
            <mxPoint x="183" y="521" as="sourcePoint" />
            <mxPoint x="183" y="491" as="targetPoint" />
          </mxGeometry>
        </mxCell>
        <mxCell id="ubY7LYZCqSwfbEKcv2Jp-118" value="en_shift_A" style="text;html=1;strokeColor=none;fillColor=none;align=center;verticalAlign=middle;whiteSpace=wrap;rounded=0;fontSize=9;fontFamily=Times New Roman;" parent="1" vertex="1">
          <mxGeometry x="158" y="464" width="60" height="30" as="geometry" />
        </mxCell>
        <mxCell id="ubY7LYZCqSwfbEKcv2Jp-119" value="" style="endArrow=classic;html=1;rounded=0;fontFamily=Times New Roman;fontSize=9;" parent="1" edge="1">
          <mxGeometry width="50" height="50" relative="1" as="geometry">
            <mxPoint x="226" y="521" as="sourcePoint" />
            <mxPoint x="226" y="491" as="targetPoint" />
          </mxGeometry>
        </mxCell>
        <mxCell id="ubY7LYZCqSwfbEKcv2Jp-120" value="en_ct" style="text;html=1;strokeColor=none;fillColor=none;align=center;verticalAlign=middle;whiteSpace=wrap;rounded=0;fontSize=9;fontFamily=Times New Roman;" parent="1" vertex="1">
          <mxGeometry x="201" y="464" width="60" height="30" as="geometry" />
        </mxCell>
        <mxCell id="_egRFKUoadoGamPCh5cE-1" value="&lt;font style=&quot;font-size: 12px;&quot;&gt;S0&lt;/font&gt;" style="ellipse;whiteSpace=wrap;html=1;strokeWidth=1;fontFamily=Times New Roman;fontSize=8;fillColor=none;" parent="1" vertex="1">
          <mxGeometry x="475" y="142" width="50" height="42" as="geometry" />
        </mxCell>
        <mxCell id="_egRFKUoadoGamPCh5cE-2" value="" style="curved=1;endArrow=classic;html=1;rounded=0;fontFamily=Times New Roman;fontSize=8;fontColor=#000000;entryX=0.02;entryY=0.714;entryDx=0;entryDy=0;entryPerimeter=0;" parent="1" edge="1">
          <mxGeometry width="50" height="50" relative="1" as="geometry">
            <mxPoint x="487" y="144" as="sourcePoint" />
            <mxPoint x="478" y="171.98800000000006" as="targetPoint" />
            <Array as="points">
              <mxPoint x="457" y="144" />
              <mxPoint x="447" y="164" />
            </Array>
          </mxGeometry>
        </mxCell>
        <mxCell id="_egRFKUoadoGamPCh5cE-3" value="~src_valid/en_shift_A=x,en_shift_q=x,q_sel=x,A_sel=x,m_sel=x,&lt;br&gt;m_mux_out=x,A_mux_out=x" style="text;html=1;strokeColor=none;fillColor=none;align=center;verticalAlign=middle;whiteSpace=wrap;rounded=0;fontSize=9;fontFamily=Times New Roman;fontColor=#000000;" parent="1" vertex="1">
          <mxGeometry x="440" y="113" width="58" height="30" as="geometry" />
        </mxCell>
        <mxCell id="_egRFKUoadoGamPCh5cE-4" value="&lt;font style=&quot;font-size: 12px;&quot;&gt;S1&lt;/font&gt;" style="ellipse;whiteSpace=wrap;html=1;strokeWidth=1;fontFamily=Times New Roman;fontSize=8;fillColor=none;" parent="1" vertex="1">
          <mxGeometry x="827.32" y="143" width="50" height="42" as="geometry" />
        </mxCell>
        <mxCell id="_egRFKUoadoGamPCh5cE-5" value="" style="curved=1;endArrow=classic;html=1;rounded=0;fontFamily=Times New Roman;fontSize=9;fontColor=#000000;exitX=1;exitY=0;exitDx=0;exitDy=0;entryX=0.24;entryY=-0.024;entryDx=0;entryDy=0;entryPerimeter=0;" parent="1" edge="1">
          <mxGeometry width="50" height="50" relative="1" as="geometry">
            <mxPoint x="521.9976695296637" y="151.15075759508272" as="sourcePoint" />
            <mxPoint x="841.3200000000002" y="143.99199999999996" as="targetPoint" />
            <Array as="points">
              <mxPoint x="659" y="107" />
            </Array>
          </mxGeometry>
        </mxCell>
        <mxCell id="_egRFKUoadoGamPCh5cE-6" value="" style="curved=1;endArrow=classic;html=1;rounded=0;fontFamily=Times New Roman;fontSize=10;fontColor=#000000;exitX=1;exitY=0;exitDx=0;exitDy=0;entryX=0.36;entryY=0.024;entryDx=0;entryDy=0;entryPerimeter=0;" parent="1" edge="1">
          <mxGeometry width="50" height="50" relative="1" as="geometry">
            <mxPoint x="870.6776695296635" y="149.00075759508275" as="sourcePoint" />
            <mxPoint x="846" y="143.85800000000006" as="targetPoint" />
            <Array as="points">
              <mxPoint x="871" y="124.85000000000002" />
              <mxPoint x="853" y="104.85000000000002" />
            </Array>
          </mxGeometry>
        </mxCell>
        <mxCell id="_egRFKUoadoGamPCh5cE-7" value="" style="curved=1;endArrow=classic;html=1;rounded=0;fontFamily=Times New Roman;fontSize=10;fontColor=#000000;entryX=1;entryY=1;entryDx=0;entryDy=0;exitX=1;exitY=0;exitDx=0;exitDy=0;" parent="1" edge="1">
          <mxGeometry width="50" height="50" relative="1" as="geometry">
            <mxPoint x="869.9976695296637" y="149.5707575950828" as="sourcePoint" />
            <mxPoint x="869.9976695296637" y="179.26924240491735" as="targetPoint" />
            <Array as="points">
              <mxPoint x="917.3199999999999" y="165.42000000000002" />
              <mxPoint x="897.3199999999999" y="179.42000000000002" />
            </Array>
          </mxGeometry>
        </mxCell>
        <mxCell id="_egRFKUoadoGamPCh5cE-8" value="" style="curved=1;endArrow=classic;html=1;rounded=0;fontFamily=Times New Roman;fontSize=10;fontColor=#000000;exitX=0;exitY=1;exitDx=0;exitDy=0;entryX=0.66;entryY=1;entryDx=0;entryDy=0;entryPerimeter=0;" parent="1" edge="1">
          <mxGeometry width="50" height="50" relative="1" as="geometry">
            <mxPoint x="835.3223304703365" y="178.9992424049177" as="sourcePoint" />
            <mxPoint x="861" y="185.14999999999998" as="targetPoint" />
            <Array as="points">
              <mxPoint x="835" y="215.14999999999998" />
              <mxPoint x="853" y="205.14999999999998" />
            </Array>
          </mxGeometry>
        </mxCell>
        <mxCell id="_egRFKUoadoGamPCh5cE-9" value="&lt;font style=&quot;font-size: 12px;&quot;&gt;S2&lt;/font&gt;" style="ellipse;whiteSpace=wrap;html=1;strokeWidth=1;fontFamily=Times New Roman;fontSize=8;fillColor=none;" parent="1" vertex="1">
          <mxGeometry x="655" y="227" width="50" height="42" as="geometry" />
        </mxCell>
        <mxCell id="_egRFKUoadoGamPCh5cE-11" value="" style="curved=1;endArrow=classic;html=1;rounded=0;fontFamily=Times New Roman;" parent="1" edge="1">
          <mxGeometry width="50" height="50" relative="1" as="geometry">
            <mxPoint x="655" y="246" as="sourcePoint" />
            <mxPoint x="503" y="184" as="targetPoint" />
            <Array as="points">
              <mxPoint x="585" y="246" />
            </Array>
          </mxGeometry>
        </mxCell>
        <mxCell id="_egRFKUoadoGamPCh5cE-12" value="dest_ready/q_sel=x,A_sel=x,&lt;br&gt;m_sel=x,&lt;span style=&quot;font-size: 10px;&quot;&gt;m_mux_out=x,A_mux_out=x&lt;/span&gt;" style="text;html=1;strokeColor=none;fillColor=none;align=center;verticalAlign=middle;whiteSpace=wrap;rounded=0;fontSize=10;fontFamily=Times New Roman;fontColor=#000000;" parent="1" vertex="1">
          <mxGeometry x="514.9999999999999" y="244" width="60" height="30" as="geometry" />
        </mxCell>
        <mxCell id="_egRFKUoadoGamPCh5cE-13" value="src_ready=1" style="text;html=1;strokeColor=none;fillColor=none;align=center;verticalAlign=middle;whiteSpace=wrap;rounded=0;fontFamily=Times New Roman;" parent="1" vertex="1">
          <mxGeometry x="420" y="172" width="60" height="30" as="geometry" />
        </mxCell>
        <mxCell id="_egRFKUoadoGamPCh5cE-15" value="src_ready=0" style="text;html=1;strokeColor=none;fillColor=none;align=center;verticalAlign=middle;whiteSpace=wrap;rounded=0;fontFamily=Times New Roman;" parent="1" vertex="1">
          <mxGeometry x="649" y="186" width="60" height="30" as="geometry" />
        </mxCell>
        <mxCell id="_egRFKUoadoGamPCh5cE-16" value="dest_valid=1" style="text;html=1;strokeColor=none;fillColor=none;align=center;verticalAlign=middle;whiteSpace=wrap;rounded=0;fontFamily=Times New Roman;" parent="1" vertex="1">
          <mxGeometry x="650" y="202" width="60" height="30" as="geometry" />
        </mxCell>
        <mxCell id="_egRFKUoadoGamPCh5cE-17" value="dest_valid=0" style="text;html=1;strokeColor=none;fillColor=none;align=center;verticalAlign=middle;whiteSpace=wrap;rounded=0;fontFamily=Times New Roman;" parent="1" vertex="1">
          <mxGeometry x="420" y="192" width="60" height="30" as="geometry" />
        </mxCell>
        <mxCell id="_egRFKUoadoGamPCh5cE-18" value="dest_valid=0" style="text;html=1;strokeColor=none;fillColor=none;align=center;verticalAlign=middle;whiteSpace=wrap;rounded=0;fontFamily=Times New Roman;" parent="1" vertex="1">
          <mxGeometry x="879.32" y="123" width="60" height="30" as="geometry" />
        </mxCell>
        <mxCell id="_egRFKUoadoGamPCh5cE-19" value="clear,dest_ready/q_sel=x,A_sel=x,m_sel=x,&lt;br style=&quot;border-color: var(--border-color); font-size: 10px;&quot;&gt;&lt;span style=&quot;font-size: 10px;&quot;&gt;m_mux_out=x,A_mux_out=x,en_ct,&lt;/span&gt;dest_valid" style="text;html=1;strokeColor=none;fillColor=none;align=center;verticalAlign=middle;whiteSpace=wrap;rounded=0;fontSize=10;fontFamily=Times New Roman;fontColor=#000000;" parent="1" vertex="1">
          <mxGeometry x="633" y="152" width="110" height="32" as="geometry" />
        </mxCell>
        <mxCell id="_egRFKUoadoGamPCh5cE-20" value="&lt;span style=&quot;color: rgb(0, 0, 0); font-size: 9px; font-style: normal; font-variant-ligatures: normal; font-variant-caps: normal; font-weight: 400; letter-spacing: normal; orphans: 2; text-align: center; text-indent: 0px; text-transform: none; widows: 2; word-spacing: 0px; -webkit-text-stroke-width: 0px; background-color: rgb(251, 251, 251); text-decoration-thickness: initial; text-decoration-style: initial; text-decoration-color: initial; float: none; display: inline !important;&quot;&gt;~clear,q_shift_out[1:0]=01/en_q,en_A,A_mux_out,&lt;/span&gt;en_shift_q,&lt;br&gt;&lt;span style=&quot;white-space: pre;&quot;&gt;&#x9;&lt;/span&gt;&lt;span style=&quot;white-space: pre;&quot;&gt;&#x9;&lt;/span&gt;&lt;span style=&quot;white-space: pre;&quot;&gt;&#x9;&lt;/span&gt;en_shift_A,en_q,en_A,en_m,en_ct" style="text;whiteSpace=wrap;html=1;fontSize=10;fontFamily=Times New Roman;fontColor=#000000;" parent="1" vertex="1">
          <mxGeometry x="852" y="197" width="270" height="40" as="geometry" />
        </mxCell>
        <mxCell id="_egRFKUoadoGamPCh5cE-21" value="&lt;span style=&quot;color: rgb(0, 0, 0); font-size: 9px; font-style: normal; font-variant-ligatures: normal; font-variant-caps: normal; font-weight: 400; letter-spacing: normal; orphans: 2; text-align: center; text-indent: 0px; text-transform: none; widows: 2; word-spacing: 0px; -webkit-text-stroke-width: 0px; background-color: rgb(251, 251, 251); text-decoration-thickness: initial; text-decoration-style: initial; text-decoration-color: initial; float: none; display: inline !important;&quot;&gt;~clear,q_shift_out[1:0]=10/en_q,en_A,m_mux_out,&lt;/span&gt;en_shift_q,&lt;br&gt;&lt;span style=&quot;white-space: pre;&quot;&gt;&#x9;&lt;/span&gt;&lt;span style=&quot;white-space: pre;&quot;&gt;&#x9;&lt;/span&gt;en_shift_A,en_q,en_A,en_m,en_ct" style="text;whiteSpace=wrap;html=1;fontSize=10;fontFamily=Times New Roman;fontColor=#000000;" parent="1" vertex="1">
          <mxGeometry x="915" y="151" width="270" height="40" as="geometry" />
        </mxCell>
        <mxCell id="_egRFKUoadoGamPCh5cE-22" value="&lt;span style=&quot;color: rgb(0, 0, 0); font-size: 9px; font-style: normal; font-variant-ligatures: normal; font-variant-caps: normal; font-weight: 400; letter-spacing: normal; orphans: 2; text-align: center; text-indent: 0px; text-transform: none; widows: 2; word-spacing: 0px; -webkit-text-stroke-width: 0px; background-color: rgb(251, 251, 251); text-decoration-thickness: initial; text-decoration-style: initial; text-decoration-color: initial; float: none; display: inline !important;&quot;&gt;~clear,q_shift_out[1]^q_shift_out[0]/en_shift_q,&lt;br&gt;&lt;span style=&quot;white-space: pre;&quot;&gt;&#x9;&lt;/span&gt;&amp;nbsp; &amp;nbsp; &amp;nbsp; &amp;nbsp;en_shift_A,en_q,en_A,en_m,en_ct&lt;/span&gt;" style="text;whiteSpace=wrap;html=1;fontSize=10;fontFamily=Times New Roman;fillColor=none;" parent="1" vertex="1">
          <mxGeometry x="815" y="77" width="198" height="40" as="geometry" />
        </mxCell>
        <mxCell id="_egRFKUoadoGamPCh5cE-23" value="src_valid/A_sel,m_sel,m_mux,en_m,en_q,en_A,&lt;br&gt;&lt;span style=&quot;white-space: pre;&quot;&gt;&#x9;&lt;/span&gt;&amp;nbsp;en_ct,A_mux_out=x,m_mux_out=x" style="text;html=1;strokeColor=none;fillColor=none;align=center;verticalAlign=middle;whiteSpace=wrap;rounded=0;fontSize=9;fontFamily=Times New Roman;fontColor=#000000;" parent="1" vertex="1">
          <mxGeometry x="655" y="98" width="60" height="30" as="geometry" />
        </mxCell>
        <mxCell id="_egRFKUoadoGamPCh5cE-24" value="" style="curved=1;endArrow=classic;html=1;rounded=0;fontFamily=Times New Roman;fontSize=10;fontColor=#000000;exitX=0;exitY=1;exitDx=0;exitDy=0;entryX=0.66;entryY=1;entryDx=0;entryDy=0;entryPerimeter=0;" parent="1" edge="1">
          <mxGeometry width="50" height="50" relative="1" as="geometry">
            <mxPoint x="659.3223304703365" y="260.9992424049177" as="sourcePoint" />
            <mxPoint x="685" y="267.15" as="targetPoint" />
            <Array as="points">
              <mxPoint x="659" y="297.15" />
              <mxPoint x="677" y="287.15" />
            </Array>
          </mxGeometry>
        </mxCell>
        <mxCell id="_egRFKUoadoGamPCh5cE-25" value="~dest_ready/q_sel=x,A_sel=x,&lt;br&gt;m_sel=x,&lt;span style=&quot;font-size: 10px;&quot;&gt;m_mux_out=x,A_mux_out=x&lt;/span&gt;" style="text;html=1;strokeColor=none;fillColor=none;align=center;verticalAlign=middle;whiteSpace=wrap;rounded=0;fontSize=10;fontFamily=Times New Roman;fontColor=#000000;" parent="1" vertex="1">
          <mxGeometry x="644.9999999999999" y="290" width="60" height="30" as="geometry" />
        </mxCell>
        <mxCell id="D8WHkCOGvB5jb_xHI-Ab-1" value="" style="endArrow=classic;html=1;rounded=0;fontFamily=Times New Roman;fontSize=9;" parent="1" edge="1">
          <mxGeometry width="50" height="50" relative="1" as="geometry">
            <mxPoint x="269" y="521" as="sourcePoint" />
            <mxPoint x="269" y="491" as="targetPoint" />
          </mxGeometry>
        </mxCell>
        <mxCell id="D8WHkCOGvB5jb_xHI-Ab-2" value="src_ready" style="text;html=1;strokeColor=none;fillColor=none;align=center;verticalAlign=middle;whiteSpace=wrap;rounded=0;fontSize=9;fontFamily=Times New Roman;" parent="1" vertex="1">
          <mxGeometry x="242" y="464" width="60" height="30" as="geometry" />
        </mxCell>
        <mxCell id="D8WHkCOGvB5jb_xHI-Ab-3" value="" style="endArrow=classic;html=1;rounded=0;fontFamily=Times New Roman;fontSize=9;" parent="1" edge="1">
          <mxGeometry width="50" height="50" relative="1" as="geometry">
            <mxPoint x="316" y="521" as="sourcePoint" />
            <mxPoint x="316" y="491" as="targetPoint" />
          </mxGeometry>
        </mxCell>
        <mxCell id="D8WHkCOGvB5jb_xHI-Ab-4" value="dest-valid" style="text;html=1;strokeColor=none;fillColor=none;align=center;verticalAlign=middle;whiteSpace=wrap;rounded=0;fontSize=9;fontFamily=Times New Roman;" parent="1" vertex="1">
          <mxGeometry x="291" y="464" width="60" height="30" as="geometry" />
        </mxCell>
        <mxCell id="D8WHkCOGvB5jb_xHI-Ab-6" value="" style="endArrow=classic;html=1;rounded=0;fontFamily=Times New Roman;fontSize=9;" parent="1" edge="1">
          <mxGeometry width="50" height="50" relative="1" as="geometry">
            <mxPoint x="-184" y="585" as="sourcePoint" />
            <mxPoint x="-154" y="585" as="targetPoint" />
          </mxGeometry>
        </mxCell>
        <mxCell id="D8WHkCOGvB5jb_xHI-Ab-7" value="src_valid" style="text;html=1;strokeColor=none;fillColor=none;align=center;verticalAlign=middle;whiteSpace=wrap;rounded=0;fontSize=9;fontFamily=Times New Roman;" parent="1" vertex="1">
          <mxGeometry x="-236" y="571" width="60" height="30" as="geometry" />
        </mxCell>
        <mxCell id="D8WHkCOGvB5jb_xHI-Ab-8" value="" style="endArrow=classic;html=1;rounded=0;fontFamily=Times New Roman;fontSize=9;" parent="1" edge="1">
          <mxGeometry width="50" height="50" relative="1" as="geometry">
            <mxPoint x="-184" y="606" as="sourcePoint" />
            <mxPoint x="-154" y="606" as="targetPoint" />
          </mxGeometry>
        </mxCell>
        <mxCell id="D8WHkCOGvB5jb_xHI-Ab-9" value="dest_ready" style="text;html=1;strokeColor=none;fillColor=none;align=center;verticalAlign=middle;whiteSpace=wrap;rounded=0;fontSize=9;fontFamily=Times New Roman;" parent="1" vertex="1">
          <mxGeometry x="-239" y="591" width="60" height="30" as="geometry" />
        </mxCell>
        <mxCell id="D8WHkCOGvB5jb_xHI-Ab-10" value="Sequential Multiplier" style="rounded=0;whiteSpace=wrap;html=1;fontFamily=Times New Roman;fontSize=15;" parent="1" vertex="1">
          <mxGeometry x="-580" y="87" width="120" height="187" as="geometry" />
        </mxCell>
        <mxCell id="D8WHkCOGvB5jb_xHI-Ab-11" value="" style="endArrow=classic;html=1;rounded=0;fontFamily=Times New Roman;fontSize=9;" parent="1" edge="1">
          <mxGeometry width="50" height="50" relative="1" as="geometry">
            <mxPoint x="-670" y="100" as="sourcePoint" />
            <mxPoint x="-580" y="100" as="targetPoint" />
          </mxGeometry>
        </mxCell>
        <mxCell id="D8WHkCOGvB5jb_xHI-Ab-12" value="" style="endArrow=classic;html=1;rounded=0;fontFamily=Times New Roman;fontSize=9;" parent="1" edge="1">
          <mxGeometry width="50" height="50" relative="1" as="geometry">
            <mxPoint x="-670" y="129" as="sourcePoint" />
            <mxPoint x="-580" y="129" as="targetPoint" />
          </mxGeometry>
        </mxCell>
        <mxCell id="D8WHkCOGvB5jb_xHI-Ab-15" value="" style="endArrow=classic;html=1;rounded=0;fontFamily=Times New Roman;fontSize=9;" parent="1" edge="1">
          <mxGeometry width="50" height="50" relative="1" as="geometry">
            <mxPoint x="-670" y="157" as="sourcePoint" />
            <mxPoint x="-580" y="157" as="targetPoint" />
          </mxGeometry>
        </mxCell>
        <mxCell id="D8WHkCOGvB5jb_xHI-Ab-16" value="" style="endArrow=classic;html=1;rounded=0;fontFamily=Times New Roman;fontSize=9;" parent="1" edge="1">
          <mxGeometry width="50" height="50" relative="1" as="geometry">
            <mxPoint x="-670" y="187" as="sourcePoint" />
            <mxPoint x="-580" y="187" as="targetPoint" />
          </mxGeometry>
        </mxCell>
        <mxCell id="D8WHkCOGvB5jb_xHI-Ab-17" value="q" style="text;html=1;strokeColor=none;fillColor=none;align=center;verticalAlign=middle;whiteSpace=wrap;rounded=0;fontSize=12;fontFamily=Times New Roman;" parent="1" vertex="1">
          <mxGeometry x="-710" y="82" width="60" height="30" as="geometry" />
        </mxCell>
        <mxCell id="D8WHkCOGvB5jb_xHI-Ab-18" value="m" style="text;html=1;strokeColor=none;fillColor=none;align=center;verticalAlign=middle;whiteSpace=wrap;rounded=0;fontSize=12;fontFamily=Times New Roman;" parent="1" vertex="1">
          <mxGeometry x="-710" y="110" width="60" height="30" as="geometry" />
        </mxCell>
        <mxCell id="D8WHkCOGvB5jb_xHI-Ab-19" value="clk" style="text;html=1;strokeColor=none;fillColor=none;align=center;verticalAlign=middle;whiteSpace=wrap;rounded=0;fontSize=12;fontFamily=Times New Roman;" parent="1" vertex="1">
          <mxGeometry x="-599" y="206" width="60" height="30" as="geometry" />
        </mxCell>
        <mxCell id="D8WHkCOGvB5jb_xHI-Ab-20" value="rst" style="text;html=1;strokeColor=none;fillColor=none;align=center;verticalAlign=middle;whiteSpace=wrap;rounded=0;fontSize=12;fontFamily=Times New Roman;" parent="1" vertex="1">
          <mxGeometry x="-599" y="228" width="60" height="30" as="geometry" />
        </mxCell>
        <mxCell id="D8WHkCOGvB5jb_xHI-Ab-21" value="src_valid" style="text;html=1;strokeColor=none;fillColor=none;align=center;verticalAlign=middle;whiteSpace=wrap;rounded=0;fontSize=12;fontFamily=Times New Roman;" parent="1" vertex="1">
          <mxGeometry x="-730" y="139" width="60" height="30" as="geometry" />
        </mxCell>
        <mxCell id="D8WHkCOGvB5jb_xHI-Ab-22" value="dest_ready" style="text;html=1;strokeColor=none;fillColor=none;align=center;verticalAlign=middle;whiteSpace=wrap;rounded=0;fontSize=12;fontFamily=Times New Roman;" parent="1" vertex="1">
          <mxGeometry x="-737" y="171" width="60" height="30" as="geometry" />
        </mxCell>
        <mxCell id="D8WHkCOGvB5jb_xHI-Ab-23" value="" style="endArrow=classic;html=1;rounded=0;fontFamily=Times New Roman;fontSize=12;exitX=1;exitY=0.08;exitDx=0;exitDy=0;exitPerimeter=0;" parent="1" edge="1">
          <mxGeometry width="50" height="50" relative="1" as="geometry">
            <mxPoint x="-460" y="98.96000000000004" as="sourcePoint" />
            <mxPoint x="-390" y="99" as="targetPoint" />
          </mxGeometry>
        </mxCell>
        <mxCell id="D8WHkCOGvB5jb_xHI-Ab-24" value="" style="endArrow=classic;html=1;rounded=0;fontFamily=Times New Roman;fontSize=12;exitX=1;exitY=0.08;exitDx=0;exitDy=0;exitPerimeter=0;" parent="1" edge="1">
          <mxGeometry width="50" height="50" relative="1" as="geometry">
            <mxPoint x="-459" y="125.96000000000004" as="sourcePoint" />
            <mxPoint x="-389" y="126" as="targetPoint" />
          </mxGeometry>
        </mxCell>
        <mxCell id="D8WHkCOGvB5jb_xHI-Ab-25" value="" style="endArrow=classic;html=1;rounded=0;fontFamily=Times New Roman;fontSize=12;exitX=1;exitY=0.08;exitDx=0;exitDy=0;exitPerimeter=0;" parent="1" edge="1">
          <mxGeometry width="50" height="50" relative="1" as="geometry">
            <mxPoint x="-460" y="155.96000000000004" as="sourcePoint" />
            <mxPoint x="-390" y="156" as="targetPoint" />
          </mxGeometry>
        </mxCell>
        <mxCell id="D8WHkCOGvB5jb_xHI-Ab-26" value="" style="endArrow=none;html=1;rounded=0;fontFamily=Times New Roman;" parent="1" edge="1">
          <mxGeometry width="50" height="50" relative="1" as="geometry">
            <mxPoint x="-420" y="104" as="sourcePoint" />
            <mxPoint x="-430" y="94" as="targetPoint" />
          </mxGeometry>
        </mxCell>
        <mxCell id="D8WHkCOGvB5jb_xHI-Ab-27" value="" style="endArrow=none;html=1;rounded=0;fontFamily=Times New Roman;" parent="1" edge="1">
          <mxGeometry width="50" height="50" relative="1" as="geometry">
            <mxPoint x="-416" y="130" as="sourcePoint" />
            <mxPoint x="-426" y="120" as="targetPoint" />
          </mxGeometry>
        </mxCell>
        <mxCell id="D8WHkCOGvB5jb_xHI-Ab-28" value="" style="endArrow=none;html=1;rounded=0;fontFamily=Times New Roman;" parent="1" edge="1">
          <mxGeometry width="50" height="50" relative="1" as="geometry">
            <mxPoint x="-413" y="161" as="sourcePoint" />
            <mxPoint x="-423" y="151" as="targetPoint" />
          </mxGeometry>
        </mxCell>
        <mxCell id="D8WHkCOGvB5jb_xHI-Ab-29" value="" style="endArrow=none;html=1;rounded=0;fontFamily=Times New Roman;" parent="1" edge="1">
          <mxGeometry width="50" height="50" relative="1" as="geometry">
            <mxPoint x="-622" y="105" as="sourcePoint" />
            <mxPoint x="-632" y="95" as="targetPoint" />
          </mxGeometry>
        </mxCell>
        <mxCell id="D8WHkCOGvB5jb_xHI-Ab-30" value="" style="endArrow=none;html=1;rounded=0;fontFamily=Times New Roman;" parent="1" edge="1">
          <mxGeometry width="50" height="50" relative="1" as="geometry">
            <mxPoint x="-622" y="133" as="sourcePoint" />
            <mxPoint x="-632" y="123" as="targetPoint" />
          </mxGeometry>
        </mxCell>
        <mxCell id="D8WHkCOGvB5jb_xHI-Ab-33" value="" style="endArrow=none;html=1;rounded=0;fontFamily=Times New Roman;" parent="1" edge="1">
          <mxGeometry width="50" height="50" relative="1" as="geometry">
            <mxPoint x="-615" y="162" as="sourcePoint" />
            <mxPoint x="-625" y="152" as="targetPoint" />
          </mxGeometry>
        </mxCell>
        <mxCell id="D8WHkCOGvB5jb_xHI-Ab-34" value="" style="endArrow=none;html=1;rounded=0;fontFamily=Times New Roman;" parent="1" edge="1">
          <mxGeometry width="50" height="50" relative="1" as="geometry">
            <mxPoint x="-612" y="192" as="sourcePoint" />
            <mxPoint x="-622" y="182" as="targetPoint" />
          </mxGeometry>
        </mxCell>
        <mxCell id="D8WHkCOGvB5jb_xHI-Ab-35" value="16" style="text;html=1;strokeColor=none;fillColor=none;align=center;verticalAlign=middle;whiteSpace=wrap;rounded=0;fontSize=9;fontFamily=Times New Roman;" parent="1" vertex="1">
          <mxGeometry x="-659" y="73" width="60" height="30" as="geometry" />
        </mxCell>
        <mxCell id="D8WHkCOGvB5jb_xHI-Ab-36" value="16" style="text;html=1;strokeColor=none;fillColor=none;align=center;verticalAlign=middle;whiteSpace=wrap;rounded=0;fontSize=9;fontFamily=Times New Roman;" parent="1" vertex="1">
          <mxGeometry x="-660" y="100" width="60" height="30" as="geometry" />
        </mxCell>
        <mxCell id="D8WHkCOGvB5jb_xHI-Ab-40" value="1" style="text;html=1;strokeColor=none;fillColor=none;align=center;verticalAlign=middle;whiteSpace=wrap;rounded=0;fontSize=9;fontFamily=Times New Roman;" parent="1" vertex="1">
          <mxGeometry x="-656" y="161" width="60" height="30" as="geometry" />
        </mxCell>
        <mxCell id="D8WHkCOGvB5jb_xHI-Ab-41" value="32" style="text;html=1;strokeColor=none;fillColor=none;align=center;verticalAlign=middle;whiteSpace=wrap;rounded=0;fontSize=9;fontFamily=Times New Roman;" parent="1" vertex="1">
          <mxGeometry x="-455" y="71" width="60" height="30" as="geometry" />
        </mxCell>
        <mxCell id="D8WHkCOGvB5jb_xHI-Ab-42" value="1" style="text;html=1;strokeColor=none;fillColor=none;align=center;verticalAlign=middle;whiteSpace=wrap;rounded=0;fontSize=9;fontFamily=Times New Roman;" parent="1" vertex="1">
          <mxGeometry x="-455" y="98" width="60" height="30" as="geometry" />
        </mxCell>
        <mxCell id="D8WHkCOGvB5jb_xHI-Ab-43" value="1" style="text;html=1;strokeColor=none;fillColor=none;align=center;verticalAlign=middle;whiteSpace=wrap;rounded=0;fontSize=9;fontFamily=Times New Roman;" parent="1" vertex="1">
          <mxGeometry x="-455" y="127" width="60" height="30" as="geometry" />
        </mxCell>
        <mxCell id="D8WHkCOGvB5jb_xHI-Ab-44" value="p" style="text;html=1;strokeColor=none;fillColor=none;align=center;verticalAlign=middle;whiteSpace=wrap;rounded=0;fontSize=12;fontFamily=Times New Roman;" parent="1" vertex="1">
          <mxGeometry x="-410" y="83" width="60" height="30" as="geometry" />
        </mxCell>
        <mxCell id="D8WHkCOGvB5jb_xHI-Ab-45" value="src_ready" style="text;html=1;strokeColor=none;fillColor=none;align=center;verticalAlign=middle;whiteSpace=wrap;rounded=0;fontSize=12;fontFamily=Times New Roman;" parent="1" vertex="1">
          <mxGeometry x="-394" y="111" width="60" height="30" as="geometry" />
        </mxCell>
        <mxCell id="D8WHkCOGvB5jb_xHI-Ab-48" value="dest_valid" style="text;html=1;strokeColor=none;fillColor=none;align=center;verticalAlign=middle;whiteSpace=wrap;rounded=0;fontSize=12;fontFamily=Times New Roman;" parent="1" vertex="1">
          <mxGeometry x="-394" y="141" width="60" height="30" as="geometry" />
        </mxCell>
        <mxCell id="Mw24tESxHtRRrV6jE89Z-2" value="" style="curved=1;endArrow=classic;html=1;rounded=0;exitX=0;exitY=1;exitDx=0;exitDy=0;fontFamily=Times New Roman;" parent="1" edge="1">
          <mxGeometry width="50" height="50" relative="1" as="geometry">
            <mxPoint x="835.6423304703367" y="178.84924240491728" as="sourcePoint" />
            <mxPoint x="522" y="171" as="targetPoint" />
            <Array as="points">
              <mxPoint x="751" y="190" />
              <mxPoint x="630" y="190" />
            </Array>
          </mxGeometry>
        </mxCell>
        <mxCell id="Mw24tESxHtRRrV6jE89Z-5" value="clear,~dest_ready/q_sel=x,A_sel=x,m_sel=x,&lt;br style=&quot;border-color: var(--border-color); font-size: 10px;&quot;&gt;&lt;span style=&quot;font-size: 10px;&quot;&gt;m_mux_out=x,A_mux_out=x,en_ct,dest_valid&lt;/span&gt;" style="text;html=1;strokeColor=none;fillColor=none;align=center;verticalAlign=middle;whiteSpace=wrap;rounded=0;fontSize=10;fontFamily=Times New Roman;fontColor=#000000;" parent="1" vertex="1">
          <mxGeometry x="790" y="236" width="110" height="32" as="geometry" />
        </mxCell>
        <mxCell id="Mw24tESxHtRRrV6jE89Z-7" value="" style="curved=1;endArrow=classic;html=1;rounded=0;exitX=0;exitY=1;exitDx=0;exitDy=0;entryX=1;entryY=0.5;entryDx=0;entryDy=0;fontFamily=Times New Roman;" parent="1" source="_egRFKUoadoGamPCh5cE-4" target="_egRFKUoadoGamPCh5cE-9" edge="1">
          <mxGeometry width="50" height="50" relative="1" as="geometry">
            <mxPoint x="830" y="180" as="sourcePoint" />
            <mxPoint x="750" y="150" as="targetPoint" />
            <Array as="points">
              <mxPoint x="790" y="230" />
            </Array>
          </mxGeometry>
        </mxCell>
        <mxCell id="Mw24tESxHtRRrV6jE89Z-8" value="src_ready=0" style="text;html=1;strokeColor=none;fillColor=none;align=center;verticalAlign=middle;whiteSpace=wrap;rounded=0;fontFamily=Times New Roman;" parent="1" vertex="1">
          <mxGeometry x="878.3199999999999" y="107" width="60" height="30" as="geometry" />
        </mxCell>
        <mxCell id="mxycpKkKYR4bUAj5Cxk8-1" value="1" style="text;html=1;strokeColor=none;fillColor=none;align=center;verticalAlign=middle;whiteSpace=wrap;rounded=0;fontSize=9;fontFamily=Times New Roman;" parent="1" vertex="1">
          <mxGeometry x="-655" y="130" width="60" height="30" as="geometry" />
        </mxCell>
      </root>
    </mxGraphModel>
  </diagram>
</mxfile>
